<?xml version="1.0" encoding="UTF-8" standalone="no"?>
<!DOCTYPE svg PUBLIC "-//W3C//DTD SVG 1.1//EN" "http://www.w3.org/Graphics/SVG/1.1/DTD/svg11.dtd">
<svg width="100%" height="100%" viewBox="0 0 989 979" version="1.1" xmlns="http://www.w3.org/2000/svg" xmlns:xlink="http://www.w3.org/1999/xlink" xml:space="preserve" xmlns:serif="http://www.serif.com/" style="fill-rule:evenodd;clip-rule:evenodd;stroke-linejoin:round;stroke-miterlimit:2;">
    <g transform="matrix(1,0,0,1,-35573.9,-10868.9)">
        <g transform="matrix(5.68224,0,0,3.55911,-135910,-34217.9)">
            <rect x="30179" y="12668" width="174" height="275" style="fill:none;"/>
            <g transform="matrix(0.593834,0,0,0.948076,30135.4,12522.7)">
                <g transform="matrix(74.9436,0,0,-74.9436,236.048,222.799)">
                    <path d="M-0.22,0.673L-0.497,0.513C-0.497,0.513 -0.497,0.513 -0.497,0.513C-0.497,0.513 -0.497,0.513 -0.497,0.513L-0.603,0.452L-0.603,0.452C-0.603,0.452 -0.603,0.452 -0.603,0.452L-0.814,0.33C-0.814,0.33 -0.814,0.33 -0.815,0.33C-0.815,0.33 -0.815,0.329 -0.815,0.329L-0.92,0.268C-0.92,0.268 -0.92,0.268 -0.92,0.268C-0.92,0.268 -0.92,0.268 -0.921,0.268L-1.132,0.146C-1.132,0.146 -1.132,0.146 -1.132,0.146C-1.132,0.146 -1.132,0.146 -1.132,0.146L-1.238,0.085C-1.243,0.082 -1.245,0.075 -1.242,0.07C-1.241,0.069 -1.24,0.068 -1.238,0.067C-1.238,0.066 -1.237,0.066 -1.237,0.066C-1.236,0.065 -1.234,0.065 -1.233,0.065C-1.233,0.065 -1.233,0.065 -1.232,0.065C-1.232,0.065 -1.232,0.065 -1.232,0.065C-1.23,0.065 -1.229,0.065 -1.227,0.066C-1.227,0.066 -1.227,0.066 -1.227,0.066C-1.227,0.066 -1.227,0.066 -1.227,0.066L-0.91,0.249C-0.91,0.249 -0.909,0.249 -0.909,0.249C-0.909,0.249 -0.909,0.25 -0.909,0.25L-0.592,0.433C-0.592,0.433 -0.592,0.433 -0.592,0.433C-0.592,0.433 -0.592,0.433 -0.592,0.433L-0.275,0.616C-0.275,0.616 -0.275,0.616 -0.275,0.616C-0.275,0.616 -0.275,0.616 -0.274,0.616L-0.215,0.651L-0.18,0.63C-0.18,0.63 -0.18,0.63 -0.18,0.63C-0.18,0.63 -0.18,0.63 -0.18,0.63L-0.074,0.569C-0.074,0.569 -0.074,0.569 -0.074,0.569C-0.074,0.569 -0.074,0.569 -0.074,0.569L0.138,0.447L0.138,0.447C0.138,0.447 0.138,0.447 0.138,0.447L0.244,0.386C0.244,0.386 0.244,0.386 0.244,0.386C0.244,0.386 0.244,0.386 0.244,0.386L0.878,0.019C0.878,0.019 0.879,0.019 0.879,0.019C0.879,0.019 0.879,0.019 0.879,0.019L1.221,-0.179L1.221,-0.259C1.221,-0.259 1.221,-0.259 1.221,-0.259C1.221,-0.259 1.221,-0.259 1.221,-0.259L1.221,-0.381C1.221,-0.381 1.221,-0.381 1.221,-0.381C1.221,-0.381 1.221,-0.381 1.221,-0.381L1.221,-0.503C1.221,-0.503 1.221,-0.503 1.221,-0.503C1.221,-0.503 1.221,-0.503 1.221,-0.503L1.221,-0.529C1.221,-0.529 1.221,-0.529 1.221,-0.529C1.221,-0.529 1.221,-0.529 1.221,-0.53L1.221,-0.651C1.221,-0.651 1.221,-0.652 1.221,-0.652C1.221,-0.652 1.221,-0.652 1.221,-0.652L1.221,-0.663C1.221,-0.669 1.226,-0.674 1.232,-0.674C1.238,-0.674 1.243,-0.669 1.243,-0.663L1.243,-0.172C1.243,-0.168 1.241,-0.165 1.238,-0.163L1.207,-0.145C1.207,-0.145 1.207,-0.145 1.207,-0.145L1.207,-0.145L1.101,-0.084C1.101,-0.084 1.101,-0.084 1.101,-0.084C1.101,-0.084 1.101,-0.084 1.101,-0.084L0.89,0.038C0.89,0.038 0.89,0.038 0.89,0.038C0.889,0.038 0.889,0.038 0.889,0.038L0.784,0.099C0.784,0.099 0.784,0.099 0.784,0.099C0.784,0.1 0.783,0.1 0.783,0.1L0.572,0.222C0.572,0.222 0.572,0.222 0.572,0.222C0.572,0.222 0.572,0.222 0.572,0.222L0.466,0.283C0.466,0.283 0.466,0.283 0.466,0.283C0.466,0.283 0.466,0.283 0.466,0.283L0.149,0.466C0.149,0.466 0.149,0.466 0.149,0.466C0.149,0.466 0.149,0.466 0.148,0.466L-0.063,0.588C-0.063,0.588 -0.063,0.588 -0.063,0.588C-0.063,0.588 -0.063,0.588 -0.063,0.588L-0.169,0.649C-0.169,0.649 -0.169,0.649 -0.169,0.649C-0.169,0.649 -0.169,0.649 -0.169,0.649L-0.209,0.673C-0.211,0.674 -0.213,0.674 -0.215,0.674C-0.217,0.674 -0.218,0.674 -0.22,0.673Z" style="fill:rgb(217,156,34);fill-rule:nonzero;stroke:rgb(217,156,34);stroke-width:0.01px;"/>
                </g>
                <g transform="matrix(71.3088,0,0,-71.3088,197.954,373.794)">
                    <path d="M-1.224,0.698L-1.224,0.18C-1.224,0.176 -1.221,0.173 -1.218,0.171L-1.129,0.119C-1.129,0.119 -1.129,0.119 -1.129,0.119C-1.129,0.119 -1.129,0.119 -1.129,0.119L-1.018,0.055C-1.018,0.055 -1.018,0.055 -1.018,0.055C-1.018,0.055 -1.018,0.055 -1.018,0.055L-0.684,-0.138L-0.684,-0.138L-0.684,-0.138L-0.351,-0.33C-0.351,-0.33 -0.351,-0.33 -0.351,-0.33C-0.351,-0.33 -0.35,-0.33 -0.35,-0.33L-0.24,-0.394C-0.239,-0.394 -0.239,-0.394 -0.239,-0.395C-0.239,-0.395 -0.239,-0.395 -0.239,-0.395L-0.017,-0.523C-0.017,-0.523 -0.017,-0.523 -0.017,-0.523C-0.017,-0.523 -0.017,-0.523 -0.017,-0.523L0.094,-0.587C0.094,-0.587 0.094,-0.587 0.094,-0.587C0.094,-0.587 0.094,-0.587 0.094,-0.587L0.303,-0.707C0.305,-0.709 0.307,-0.709 0.309,-0.709C0.311,-0.709 0.313,-0.709 0.314,-0.707L0.884,-0.379C0.884,-0.378 0.884,-0.378 0.884,-0.378C0.884,-0.378 0.884,-0.378 0.884,-0.378C0.884,-0.378 0.995,-0.314 0.995,-0.314C0.996,-0.314 0.996,-0.314 0.996,-0.314L1.218,-0.186C1.219,-0.185 1.22,-0.184 1.221,-0.183C1.223,-0.181 1.224,-0.178 1.224,-0.174C1.223,-0.173 1.223,-0.172 1.222,-0.17C1.22,-0.166 1.215,-0.164 1.21,-0.165C1.209,-0.165 1.208,-0.165 1.206,-0.166C1.206,-0.166 1.206,-0.166 1.206,-0.166L0.984,-0.294C0.984,-0.294 0.984,-0.294 0.984,-0.294C0.984,-0.294 0.984,-0.294 0.984,-0.295L0.651,-0.487C0.651,-0.487 0.65,-0.487 0.65,-0.487C0.65,-0.487 0.65,-0.487 0.65,-0.487L0.539,-0.551L0.539,-0.551C0.539,-0.551 0.539,-0.551 0.539,-0.551L0.428,-0.615L0.428,-0.615L0.317,-0.679C0.317,-0.679 0.317,-0.679 0.317,-0.68C0.317,-0.68 0.317,-0.68 0.317,-0.68L0.309,-0.684L-0.339,-0.31C-0.339,-0.31 -0.339,-0.31 -0.339,-0.31C-0.339,-0.31 -0.339,-0.31 -0.339,-0.31L-0.45,-0.246C-0.45,-0.246 -0.45,-0.246 -0.45,-0.246C-0.45,-0.246 -0.45,-0.246 -0.451,-0.246L-0.783,-0.054C-0.784,-0.054 -0.784,-0.054 -0.784,-0.053C-0.784,-0.053 -0.784,-0.053 -0.784,-0.053L-1.117,0.139C-1.117,0.139 -1.117,0.139 -1.118,0.139C-1.118,0.139 -1.118,0.139 -1.118,0.139L-1.201,0.187L-1.201,0.206C-1.201,0.206 -1.201,0.206 -1.201,0.206C-1.201,0.206 -1.201,0.206 -1.201,0.206L-1.201,0.334C-1.201,0.335 -1.201,0.335 -1.201,0.335C-1.201,0.335 -1.201,0.335 -1.201,0.335L-1.201,0.463C-1.201,0.463 -1.201,0.463 -1.201,0.463C-1.201,0.463 -1.201,0.463 -1.201,0.463L-1.201,0.591C-1.201,0.591 -1.201,0.591 -1.201,0.591C-1.201,0.591 -1.201,0.591 -1.201,0.592L-1.201,0.698C-1.201,0.704 -1.206,0.709 -1.212,0.709C-1.219,0.709 -1.224,0.704 -1.224,0.698Z" style="fill:rgb(217,156,34);fill-rule:nonzero;stroke:rgb(217,156,34);stroke-width:0.01px;"/>
                </g>
                <g transform="matrix(0.817282,0,0,-0.817282,222.99,190.111)">
                    <path d="M-0.863,0.501C-1.142,0.019 -0.981,-0.593 -0.499,-0.87C-0.338,-0.959 -0.178,-1.002 -0.003,-1.002C0.349,-1.002 0.684,-0.827 0.874,-0.506C1.138,-0.024 0.977,0.59 0.495,0.869C0.343,0.958 0.176,1.001 0.01,1.001C-0.335,1.001 -0.676,0.817 -0.863,0.501Z" style="fill:rgb(217,156,34);fill-rule:nonzero;stroke:rgb(217,156,34);stroke-width:1.51px;"/>
                </g>
                <g transform="matrix(0.817082,0,0,-0.817082,207.13,195.766)">
                    <path d="M-0.497,0.867C-0.979,0.59 -1.139,-0.024 -0.861,-0.506C-0.686,-0.828 -0.35,-1.003 -0,-1.003C0.176,-1.003 0.335,-0.96 0.496,-0.871C0.978,-0.594 1.139,0.019 0.862,0.501C0.676,0.824 0.346,1.002 0.005,1.002C-0.165,1.002 -0.336,0.958 -0.497,0.867Z" style="fill:rgb(217,156,34);fill-rule:nonzero;stroke:rgb(217,156,34);stroke-width:1.51px;"/>
                </g>
                <g transform="matrix(0.819542,0,0,-0.819542,230.919,194.693)">
                    <path d="M-0.868,0.499C-1.144,0.019 -0.97,-0.592 -0.503,-0.868C-0.343,-0.957 -0.169,-1 0.006,-1C0.34,-1 0.675,-0.825 0.864,-0.505C1.141,-0.024 0.981,0.588 0.501,0.864C0.342,0.955 0.168,0.999 -0.003,0.999C-0.349,0.999 -0.683,0.821 -0.868,0.499Z" style="fill:rgb(217,156,34);fill-rule:nonzero;stroke:rgb(217,156,34);stroke-width:1.51px;"/>
                </g>
                <g transform="matrix(0.819512,0,0,-0.819512,159.547,223.238)">
                    <path d="M-0.503,0.867C-0.982,0.589 -1.144,-0.023 -0.866,-0.502C-0.676,-0.824 -0.341,-0.998 0.006,-0.998C0.166,-0.998 0.343,-0.956 0.503,-0.867C0.982,-0.589 1.144,0.022 0.866,0.502C0.679,0.817 0.341,0.999 -0.008,0.999C-0.177,0.999 -0.346,0.956 -0.503,0.867Z" style="fill:rgb(217,156,34);fill-rule:nonzero;stroke:rgb(217,156,34);stroke-width:1.51px;"/>
                </g>
                <g transform="matrix(0.816396,0,0,-0.816396,246.783,203.847)">
                    <path d="M-0.862,0.505C-1.14,0.022 -0.98,-0.592 -0.497,-0.869C-0.351,-0.957 -0.176,-1.001 -0,-1.001C0.336,-1.001 0.688,-0.826 0.863,-0.505C1.14,-0.024 0.979,0.591 0.496,0.869C0.339,0.961 0.171,1.002 0.003,1.002C-0.342,1.002 -0.674,0.819 -0.862,0.505Z" style="fill:rgb(217,156,34);fill-rule:nonzero;stroke:rgb(217,156,34);stroke-width:1.51px;"/>
                </g>
                <g transform="matrix(0.819443,0,0,-0.819443,238.852,199.275)">
                    <path d="M-0.865,0.499C-1.142,0.035 -0.982,-0.578 -0.501,-0.854C-0.341,-0.957 -0.165,-1 -0.005,-1C0.344,-1 0.679,-0.811 0.868,-0.491C1.145,-0.026 0.971,0.601 0.49,0.864C0.335,0.955 0.166,0.999 -0.003,0.999C-0.345,0.999 -0.679,0.821 -0.865,0.499Z" style="fill:rgb(217,156,34);fill-rule:nonzero;stroke:rgb(217,156,34);stroke-width:1.51px;"/>
                </g>
                <g transform="matrix(0.817073,0,0,-0.817073,215.059,191.19)">
                    <path d="M-0.503,0.86C-0.985,0.597 -1.146,-0.017 -0.869,-0.499C-0.678,-0.82 -0.342,-0.995 0.008,-0.995C0.168,-0.995 0.343,-0.952 0.504,-0.863C0.986,-0.586 1.147,0.026 0.868,0.494C0.682,0.817 0.347,0.995 0,0.995C-0.171,0.995 -0.344,0.953 -0.503,0.86Z" style="fill:rgb(217,156,34);fill-rule:nonzero;stroke:rgb(217,156,34);stroke-width:1.51px;"/>
                </g>
                <g transform="matrix(0.817078,0,0,-0.817078,167.476,218.667)">
                    <path d="M-0.495,0.869C-0.979,0.591 -1.139,-0.007 -0.863,-0.489C-0.671,-0.812 -0.336,-1.002 -0,-1.002C0.177,-1.002 0.35,-0.957 0.498,-0.855C0.98,-0.577 1.139,0.021 0.862,0.503C0.687,0.825 0.353,1.003 0.009,1.003C-0.163,1.003 -0.336,0.961 -0.495,0.869Z" style="fill:rgb(217,156,34);fill-rule:nonzero;stroke:rgb(217,156,34);stroke-width:1.51px;"/>
                </g>
                <g transform="matrix(0.819506,0,0,-0.819506,175.407,214.084)">
                    <path d="M-0.505,0.865C-0.971,0.589 -1.146,-0.023 -0.868,-0.504C-0.677,-0.826 -0.343,-1 0.006,-1C0.165,-1 0.341,-0.956 0.499,-0.869C0.98,-0.591 1.142,0.02 0.866,0.5C0.681,0.822 0.344,1 -0.001,1C-0.172,1 -0.345,0.956 -0.505,0.865Z" style="fill:rgb(217,156,34);fill-rule:nonzero;stroke:rgb(217,156,34);stroke-width:1.51px;"/>
                </g>
                <g transform="matrix(0.814951,0,0,-0.814951,191.269,204.924)">
                    <path d="M-0.495,0.861C-0.979,0.584 -1.14,-0.018 -0.877,-0.501C-0.687,-0.823 -0.349,-0.999 0.002,-0.999C0.178,-0.999 0.339,-0.97 0.498,-0.868C0.983,-0.587 1.143,0.025 0.867,0.494C0.681,0.818 0.342,0.997 0.001,0.997C-0.17,0.997 -0.34,0.953 -0.495,0.861Z" style="fill:rgb(217,156,34);fill-rule:nonzero;stroke:rgb(217,156,34);stroke-width:1.52px;"/>
                </g>
                <g transform="matrix(0.819526,0,0,-0.819526,199.199,200.348)">
                    <path d="M-0.5,0.864C-0.98,0.586 -1.141,-0.024 -0.865,-0.505C-0.674,-0.811 -0.34,-1 -0.005,-1C0.17,-1 0.344,-0.957 0.504,-0.87C0.971,-0.594 1.145,0.018 0.867,0.499C0.682,0.821 0.348,0.999 0.004,0.999C-0.167,0.999 -0.341,0.955 -0.5,0.864Z" style="fill:rgb(217,156,34);fill-rule:nonzero;stroke:rgb(217,156,34);stroke-width:1.51px;"/>
                </g>
                <g transform="matrix(0.818659,0,0,-0.818659,183.34,209.504)">
                    <path d="M-0.5,0.868C-0.981,0.59 -1.143,-0.021 -0.865,-0.502C-0.676,-0.823 -0.341,-0.999 -0.004,-0.999C0.17,-0.999 0.343,-0.955 0.491,-0.867C0.972,-0.589 1.147,0.022 0.869,0.503C0.683,0.818 0.343,1 -0.004,1C-0.174,1 -0.343,0.957 -0.5,0.868Z" style="fill:rgb(217,156,34);fill-rule:nonzero;stroke:rgb(217,156,34);stroke-width:1.51px;"/>
                </g>
                <g transform="matrix(0.819462,0,0,-0.819462,254.711,208.427)">
                    <path d="M-0.865,0.499C-1.141,0.02 -0.981,-0.592 -0.5,-0.87C-0.34,-0.957 -0.166,-1 -0.005,-1C0.344,-1 0.678,-0.825 0.867,-0.505C1.145,-0.026 0.97,0.586 0.504,0.864C0.345,0.955 0.171,0.999 0.002,0.999C-0.344,0.999 -0.678,0.82 -0.865,0.499Z" style="fill:rgb(217,156,34);fill-rule:nonzero;stroke:rgb(217,156,34);stroke-width:1.51px;"/>
                </g>
                <g transform="matrix(0,0.817514,0.817514,0,315.176,255.935)">
                    <circle cx="-0" cy="0" r="1" style="fill:rgb(217,156,34);stroke:rgb(217,156,34);stroke-width:1.51px;"/>
                </g>
                <g transform="matrix(0.817017,0,0,-0.817017,302.295,235.896)">
                    <path d="M-0.862,0.5C-1.138,0.02 -0.978,-0.596 -0.495,-0.873C-0.351,-0.961 -0.176,-1.003 -0.001,-1.003C0.335,-1.003 0.687,-0.828 0.861,-0.507C1.138,-0.025 0.978,0.586 0.495,0.864C0.337,0.957 0.163,1.002 -0.004,1.002C-0.347,1.002 -0.676,0.821 -0.862,0.5Z" style="fill:rgb(217,156,34);fill-rule:nonzero;stroke:rgb(217,156,34);stroke-width:1.51px;"/>
                </g>
                <g transform="matrix(0,0.817514,0.817514,0,315.176,246.77)">
                    <ellipse cx="-0" cy="0" rx="1.001" ry="1" style="fill:rgb(217,156,34);stroke:rgb(217,156,34);stroke-width:1.51px;"/>
                </g>
                <g transform="matrix(0.817916,0,0,-0.817916,278.503,222.163)">
                    <path d="M-0.863,0.502C-1.141,0.022 -0.981,-0.592 -0.499,-0.87C-0.339,-0.955 -0.178,-1.002 -0.002,-1.002C0.348,-1.002 0.683,-0.825 0.874,-0.504C1.136,-0.023 0.974,0.589 0.492,0.867C0.339,0.958 0.168,1.003 0,1.003C-0.342,1.003 -0.678,0.825 -0.863,0.502Z" style="fill:rgb(217,156,34);fill-rule:nonzero;stroke:rgb(217,156,34);stroke-width:1.51px;"/>
                </g>
                <g transform="matrix(0.815079,0,0,-0.815079,294.36,231.32)">
                    <path d="M-0.864,0.494C-1.143,0.025 -0.98,-0.588 -0.499,-0.868C-0.336,-0.954 -0.162,-1 0,-1C0.351,-1 0.69,-0.823 0.865,-0.501C1.142,-0.017 0.981,0.596 0.498,0.876C0.346,0.96 0.179,1.001 0.015,1.001C-0.332,1.001 -0.674,0.822 -0.864,0.494Z" style="fill:rgb(217,156,34);fill-rule:nonzero;stroke:rgb(217,156,34);stroke-width:1.51px;"/>
                </g>
                <g transform="matrix(0.818085,0,0,-0.818085,286.434,226.745)">
                    <path d="M-0.874,0.503C-1.136,0.022 -0.973,-0.592 -0.508,-0.87C-0.347,-0.957 -0.173,-1.002 0.002,-1.002C0.337,-1.002 0.673,-0.811 0.862,-0.49C1.14,-0.025 0.979,0.589 0.498,0.867C0.339,0.96 0.166,1.002 -0.005,1.002C-0.351,1.002 -0.686,0.824 -0.874,0.503Z" style="fill:rgb(217,156,34);fill-rule:nonzero;stroke:rgb(217,156,34);stroke-width:1.51px;"/>
                </g>
                <g transform="matrix(0.819359,0,0,-0.819359,310.223,240.481)">
                    <path d="M-0.866,0.502C-1.143,0.021 -0.981,-0.589 -0.502,-0.867C-0.34,-0.954 -0.166,-0.999 -0.006,-0.999C0.345,-0.999 0.68,-0.808 0.869,-0.488C1.146,-0.021 0.97,0.589 0.504,0.865C0.345,0.958 0.171,1.001 -0,1.001C-0.346,1.001 -0.68,0.823 -0.866,0.502Z" style="fill:rgb(217,156,34);fill-rule:nonzero;stroke:rgb(217,156,34);stroke-width:1.51px;"/>
                </g>
                <g transform="matrix(0.818108,0,0,-0.818108,270.571,217.583)">
                    <path d="M-0.868,0.504C-1.145,0.023 -0.984,-0.589 -0.503,-0.867C-0.342,-0.953 -0.168,-0.997 -0.007,-0.997C0.342,-0.997 0.678,-0.823 0.867,-0.503C1.145,-0.022 0.984,0.591 0.503,0.87C0.348,0.955 0.177,0.996 0.009,0.996C-0.341,0.996 -0.681,0.82 -0.868,0.504Z" style="fill:rgb(217,156,34);fill-rule:nonzero;stroke:rgb(217,156,34);stroke-width:1.51px;"/>
                </g>
                <g transform="matrix(0.816964,0,0,-0.816964,262.642,213.011)">
                    <path d="M-0.861,0.502C-1.14,0.02 -0.979,-0.592 -0.497,-0.857C-0.336,-0.958 -0.176,-1.003 -0.001,-1.003C0.351,-1.003 0.687,-0.812 0.864,-0.492C1.139,-0.023 0.978,0.59 0.496,0.868C0.342,0.959 0.171,1.004 0.003,1.004C-0.34,1.004 -0.676,0.824 -0.861,0.502Z" style="fill:rgb(217,156,34);fill-rule:nonzero;stroke:rgb(217,156,34);stroke-width:1.51px;"/>
                </g>
                <g transform="matrix(0.818824,0,0,-0.818824,129.928,356.29)">
                    <path d="M-0.866,0.503C-1.142,0.022 -0.982,-0.591 -0.5,-0.867C-0.342,-0.956 -0.166,-0.999 -0.005,-0.999C0.344,-0.999 0.679,-0.824 0.868,-0.503C1.146,-0.024 0.971,0.589 0.504,0.867C0.348,0.956 0.178,0.998 0.011,0.998C-0.338,0.998 -0.679,0.817 -0.866,0.503Z" style="fill:rgb(217,156,34);fill-rule:nonzero;stroke:rgb(217,156,34);stroke-width:1.51px;"/>
                </g>
                <g transform="matrix(0.819319,0,0,-0.819319,161.648,374.606)">
                    <path d="M-0.867,0.501C-1.145,0.02 -0.971,-0.591 -0.504,-0.869C-0.344,-0.954 -0.169,-1 0.005,-1C0.34,-1 0.675,-0.81 0.865,-0.489C1.141,-0.025 0.981,0.588 0.5,0.866C0.342,0.956 0.169,1.001 -0.002,1.001C-0.347,1.001 -0.684,0.823 -0.867,0.501Z" style="fill:rgb(217,156,34);fill-rule:nonzero;stroke:rgb(217,156,34);stroke-width:1.51px;"/>
                </g>
                <g transform="matrix(0.815887,0,0,-0.815887,169.578,379.182)">
                    <path d="M-0.866,0.494C-1.143,0.026 -0.982,-0.589 -0.499,-0.867C-0.338,-0.954 -0.177,-0.999 -0.002,-0.999C0.349,-0.999 0.685,-0.822 0.874,-0.5C1.139,-0.017 0.978,0.582 0.495,0.875C0.343,0.959 0.177,1 0.012,1C-0.334,1 -0.678,0.821 -0.866,0.494Z" style="fill:rgb(217,156,34);fill-rule:nonzero;stroke:rgb(217,156,34);stroke-width:1.51px;"/>
                </g>
                <g transform="matrix(0.817126,0,0,-0.817126,137.859,360.87)">
                    <path d="M-0.861,0.5C-1.14,0.02 -0.979,-0.596 -0.497,-0.857C-0.351,-0.96 -0.176,-1.003 -0.001,-1.003C0.351,-1.003 0.687,-0.816 0.862,-0.494C1.14,-0.026 0.979,0.588 0.497,0.866C0.337,0.957 0.165,1.002 -0.004,1.002C-0.347,1.002 -0.676,0.822 -0.861,0.5Z" style="fill:rgb(217,156,34);fill-rule:nonzero;stroke:rgb(217,156,34);stroke-width:1.51px;"/>
                </g>
                <g transform="matrix(0.815105,0,0,-0.815105,248.881,391.568)">
                    <path d="M-0.495,0.859C-0.978,0.582 -1.14,-0.032 -0.875,-0.501C-0.687,-0.823 -0.35,-0.998 0.001,-0.998C0.176,-0.998 0.339,-0.97 0.5,-0.866C0.983,-0.589 1.144,0.025 0.867,0.494C0.681,0.818 0.344,0.997 0.002,0.997C-0.168,0.997 -0.34,0.952 -0.495,0.859Z" style="fill:rgb(217,156,34);fill-rule:nonzero;stroke:rgb(217,156,34);stroke-width:1.51px;"/>
                </g>
                <g transform="matrix(0,0.817477,0.817477,0,124.738,331.816)">
                    <circle cx="-0" cy="-0" r="1" style="fill:rgb(217,156,34);stroke:rgb(217,156,34);stroke-width:1.51px;"/>
                </g>
                <g transform="matrix(0,0.817441,0.817441,0,124.737,350.134)">
                    <circle cx="-0" cy="0.001" r="1" style="fill:rgb(217,156,34);stroke:rgb(217,156,34);stroke-width:1.51px;"/>
                </g>
                <g transform="matrix(0.817065,0,0,-0.817065,153.717,370.023)">
                    <path d="M-0.862,0.5C-1.14,0.018 -0.98,-0.596 -0.497,-0.873C-0.337,-0.958 -0.174,-1.003 0.001,-1.003C0.351,-1.003 0.686,-0.828 0.861,-0.509C1.14,-0.026 0.979,0.588 0.497,0.866C0.336,0.957 0.165,1.002 -0.005,1.002C-0.347,1.002 -0.676,0.823 -0.862,0.5Z" style="fill:rgb(217,156,34);fill-rule:nonzero;stroke:rgb(217,156,34);stroke-width:1.51px;"/>
                </g>
                <g transform="matrix(0,0.817331,0.817331,0,124.739,340.969)">
                    <circle cx="-0" cy="-0.001" r="1" style="fill:rgb(217,156,34);stroke:rgb(217,156,34);stroke-width:1.51px;"/>
                </g>
                <g transform="matrix(0.817072,0,0,-0.817072,145.788,365.45)">
                    <path d="M-0.868,0.497C-1.146,0.031 -0.986,-0.584 -0.504,-0.862C-0.343,-0.948 -0.168,-0.994 -0.007,-0.994C0.343,-0.994 0.678,-0.817 0.868,-0.498C1.146,-0.016 0.985,0.598 0.503,0.863C0.345,0.954 0.171,0.997 -0,0.997C-0.346,0.997 -0.684,0.818 -0.868,0.497Z" style="fill:rgb(217,156,34);fill-rule:nonzero;stroke:rgb(217,156,34);stroke-width:1.51px;"/>
                </g>
                <g transform="matrix(0.816366,0,0,-0.816366,264.742,382.412)">
                    <path d="M-0.497,0.869C-0.98,0.592 -1.14,-0.022 -0.863,-0.505C-0.688,-0.826 -0.336,-1.002 -0.002,-1.002C0.175,-1.002 0.336,-0.959 0.496,-0.869C0.979,-0.594 1.14,0.021 0.863,0.503C0.675,0.819 0.341,1.002 -0.006,1.002C-0.172,1.002 -0.34,0.961 -0.497,0.869Z" style="fill:rgb(217,156,34);fill-rule:nonzero;stroke:rgb(217,156,34);stroke-width:1.51px;"/>
                </g>
                <g transform="matrix(0.818083,0,0,-0.818083,233.022,400.726)">
                    <path d="M-0.509,0.865C-0.974,0.587 -1.137,-0.025 -0.873,-0.506C-0.684,-0.827 -0.348,-1.002 0.003,-1.002C0.163,-1.002 0.338,-0.959 0.499,-0.872C0.98,-0.594 1.141,0.016 0.862,0.498C0.677,0.82 0.342,1 -0.004,1C-0.175,1 -0.348,0.956 -0.509,0.865Z" style="fill:rgb(217,156,34);fill-rule:nonzero;stroke:rgb(217,156,34);stroke-width:1.51px;"/>
                </g>
                <g transform="matrix(0.818094,0,0,-0.818094,225.091,405.31)">
                    <path d="M-0.5,0.866C-0.98,0.588 -1.142,-0.011 -0.864,-0.492C-0.675,-0.811 -0.338,-1.002 -0.002,-1.002C0.174,-1.002 0.349,-0.958 0.495,-0.856C0.977,-0.578 1.137,0.034 0.873,0.501C0.688,0.824 0.352,1.002 0.007,1.002C-0.165,1.002 -0.339,0.957 -0.5,0.866Z" style="fill:rgb(217,156,34);fill-rule:nonzero;stroke:rgb(217,156,34);stroke-width:1.51px;"/>
                </g>
                <g transform="matrix(0.818813,0,0,-0.818813,240.952,396.146)">
                    <path d="M-0.501,0.867C-0.982,0.589 -1.143,-0.024 -0.865,-0.505C-0.676,-0.824 -0.341,-0.999 -0.004,-0.999C0.17,-0.999 0.345,-0.956 0.505,-0.869C0.97,-0.591 1.145,0.02 0.869,0.501C0.682,0.817 0.341,0.998 -0.006,0.998C-0.175,0.998 -0.345,0.956 -0.501,0.867Z" style="fill:rgb(217,156,34);fill-rule:nonzero;stroke:rgb(217,156,34);stroke-width:1.51px;"/>
                </g>
                <g transform="matrix(0.819525,0,0,-0.819525,217.161,406.657)">
                    <path d="M-0.868,0.5C-1.143,0.019 -0.971,-0.579 -0.503,-0.855C-0.344,-0.956 -0.17,-1.001 0.005,-1.001C0.341,-1.001 0.676,-0.811 0.864,-0.492C1.142,-0.026 0.982,0.587 0.501,0.863C0.343,0.955 0.168,1 -0.002,1C-0.348,1 -0.682,0.82 -0.868,0.5Z" style="fill:rgb(217,156,34);fill-rule:nonzero;stroke:rgb(217,156,34);stroke-width:1.51px;"/>
                </g>
                <g transform="matrix(0.819449,0,0,-0.819449,256.814,386.992)">
                    <path d="M-0.503,0.862C-0.969,0.588 -1.144,-0.026 -0.868,-0.505C-0.679,-0.826 -0.343,-1 0.006,-1C0.167,-1 0.341,-0.957 0.501,-0.868C0.982,-0.592 1.142,0.018 0.864,0.499C0.679,0.821 0.345,0.999 0.001,0.999C-0.17,0.999 -0.344,0.955 -0.503,0.862Z" style="fill:rgb(217,156,34);fill-rule:nonzero;stroke:rgb(217,156,34);stroke-width:1.51px;"/>
                </g>
                <g transform="matrix(0.817065,0,0,-0.817065,209.23,402.074)">
                    <path d="M-0.862,0.5C-1.141,0.018 -0.98,-0.597 -0.498,-0.873C-0.337,-0.961 -0.175,-1.004 0,-1.004C0.352,-1.004 0.688,-0.829 0.863,-0.507C1.139,-0.025 0.979,0.587 0.497,0.864C0.341,0.957 0.17,1.001 0,1.001C-0.341,1.001 -0.676,0.821 -0.862,0.5Z" style="fill:rgb(217,156,34);fill-rule:nonzero;stroke:rgb(217,156,34);stroke-width:1.51px;"/>
                </g>
                <g transform="matrix(0.817045,0,0,-0.817045,193.371,392.924)">
                    <path d="M-0.862,0.503C-1.139,0.021 -0.98,-0.579 -0.498,-0.856C-0.351,-0.957 -0.174,-1.002 0.001,-1.002C0.334,-1.002 0.688,-0.811 0.863,-0.49C1.14,-0.007 0.977,0.589 0.497,0.867C0.336,0.96 0.161,1.003 -0.008,1.003C-0.353,1.003 -0.685,0.825 -0.862,0.503Z" style="fill:rgb(217,156,34);fill-rule:nonzero;stroke:rgb(217,156,34);stroke-width:1.51px;"/>
                </g>
                <g transform="matrix(0.816394,0,0,-0.816394,272.673,377.834)">
                    <path d="M-0.505,0.858C-0.973,0.598 -1.148,-0.017 -0.871,-0.5C-0.68,-0.819 -0.344,-0.996 0.006,-0.996C0.167,-0.996 0.342,-0.953 0.503,-0.864C0.985,-0.589 1.146,0.026 0.867,0.494C0.683,0.817 0.347,0.996 0.001,0.996C-0.171,0.996 -0.346,0.951 -0.505,0.858Z" style="fill:rgb(217,156,34);fill-rule:nonzero;stroke:rgb(217,156,34);stroke-width:1.51px;"/>
                </g>
                <g transform="matrix(0.817954,0,0,-0.817954,185.437,388.342)">
                    <path d="M-0.864,0.503C-1.14,0.021 -0.98,-0.592 -0.498,-0.869C-0.338,-0.956 -0.177,-1.001 -0.002,-1.001C0.347,-1.001 0.683,-0.824 0.872,-0.503C1.136,-0.022 0.975,0.59 0.494,0.867C0.338,0.959 0.167,1.002 -0.002,1.002C-0.343,1.002 -0.678,0.824 -0.864,0.503Z" style="fill:rgb(217,156,34);fill-rule:nonzero;stroke:rgb(217,156,34);stroke-width:1.51px;"/>
                </g>
                <g transform="matrix(0.817987,0,0,-0.817987,280.603,373.257)">
                    <path d="M-0.499,0.866C-0.98,0.589 -1.141,-0.024 -0.863,-0.506C-0.674,-0.812 -0.338,-1.002 -0.003,-1.002C0.172,-1.002 0.348,-0.957 0.509,-0.855C0.974,-0.595 1.135,0.019 0.873,0.5C0.687,0.823 0.352,1.001 0.006,1.001C-0.165,1.001 -0.338,0.957 -0.499,0.866Z" style="fill:rgb(217,156,34);fill-rule:nonzero;stroke:rgb(217,156,34);stroke-width:1.51px;"/>
                </g>
                <g transform="matrix(0.818824,0,0,-0.818824,177.507,383.759)">
                    <path d="M-0.868,0.501C-1.146,0.02 -0.972,-0.591 -0.505,-0.869C-0.344,-0.957 -0.17,-0.999 0.007,-0.999C0.34,-0.999 0.675,-0.825 0.867,-0.504C1.141,-0.023 0.981,0.588 0.5,0.866C0.345,0.955 0.174,0.998 0.007,0.998C-0.343,0.998 -0.683,0.816 -0.868,0.501Z" style="fill:rgb(217,156,34);fill-rule:nonzero;stroke:rgb(217,156,34);stroke-width:1.51px;"/>
                </g>
                <g transform="matrix(0.81867,0,0,-0.81867,201.299,397.495)">
                    <path d="M-0.867,0.502C-1.141,0.021 -0.982,-0.592 -0.5,-0.868C-0.341,-0.955 -0.166,-0.998 -0.006,-0.998C0.343,-0.998 0.68,-0.823 0.867,-0.503C1.145,-0.021 0.971,0.59 0.505,0.866C0.349,0.957 0.178,0.998 0.01,0.998C-0.339,0.998 -0.678,0.818 -0.867,0.502Z" style="fill:rgb(217,156,34);fill-rule:nonzero;stroke:rgb(217,156,34);stroke-width:1.51px;"/>
                </g>
                <g transform="matrix(22.2568,0,0,-22.2568,315.746,285.878)">
                    <path d="M-1.384,0.029C-1.401,0.029 -1.414,0.016 -1.414,0C-1.414,-0.016 -1.401,-0.029 -1.384,-0.029L1.385,-0.029C1.401,-0.029 1.414,-0.016 1.414,0C1.414,0.016 1.401,0.029 1.385,0.029L-1.384,0.029Z" style="fill:rgb(217,156,34);fill-rule:nonzero;stroke:rgb(217,156,34);stroke-width:0.03px;"/>
                </g>
                <g transform="matrix(34.2289,0,0,-34.2289,141.104,285.878)">
                    <path d="M-1.395,0.019C-1.405,0.019 -1.414,0.011 -1.414,0C-1.414,-0.011 -1.405,-0.019 -1.395,-0.019L1.395,-0.019C1.406,-0.019 1.414,-0.011 1.414,0C1.414,0.011 1.406,0.019 1.395,0.019L-1.395,0.019Z" style="fill:rgb(217,156,34);fill-rule:nonzero;stroke:rgb(217,156,34);stroke-width:0.02px;"/>
                </g>
                <g transform="matrix(30.0757,0,0,-30.0757,304.687,310.754)">
                    <path d="M-1.392,0.022C-1.404,0.022 -1.414,0.012 -1.414,-0C-1.414,-0.012 -1.404,-0.022 -1.392,-0.022L1.392,-0.022C1.404,-0.022 1.414,-0.012 1.414,-0C1.414,0.012 1.404,0.022 1.392,0.022L-1.392,0.022Z" style="fill:rgb(217,156,34);fill-rule:nonzero;stroke:rgb(217,156,34);stroke-width:0.02px;"/>
                </g>
                <g transform="matrix(28.7766,0,0,-28.7766,133.392,310.754)">
                    <path d="M-1.391,0.023C-1.404,0.023 -1.414,0.013 -1.414,-0C-1.414,-0.013 -1.404,-0.023 -1.391,-0.023L1.391,-0.023C1.404,-0.023 1.414,-0.013 1.414,-0C1.414,0.013 1.404,0.023 1.391,0.023L-1.391,0.023Z" style="fill:rgb(217,156,34);fill-rule:nonzero;stroke:rgb(217,156,34);stroke-width:0.02px;"/>
                </g>
                <g transform="matrix(1.4588,0,0,1.4588,-86.8574,-135.879)">
                    <g transform="matrix(115.227,0,0,115.228,170.917,333.047)">
                        <path d="M0.549,-0.164C0.549,-0.206 0.537,-0.24 0.513,-0.266C0.489,-0.292 0.46,-0.305 0.426,-0.305C0.392,-0.305 0.366,-0.295 0.347,-0.274C0.328,-0.253 0.319,-0.228 0.319,-0.2C0.319,-0.171 0.327,-0.147 0.344,-0.126C0.361,-0.105 0.383,-0.095 0.411,-0.095C0.426,-0.095 0.438,-0.098 0.449,-0.105C0.453,-0.108 0.455,-0.111 0.455,-0.114C0.455,-0.12 0.452,-0.123 0.446,-0.123C0.445,-0.123 0.442,-0.122 0.437,-0.119C0.432,-0.116 0.425,-0.115 0.416,-0.115C0.407,-0.115 0.398,-0.12 0.39,-0.129C0.382,-0.138 0.378,-0.15 0.378,-0.164C0.378,-0.178 0.383,-0.19 0.393,-0.201C0.402,-0.211 0.416,-0.216 0.433,-0.216C0.45,-0.216 0.465,-0.209 0.477,-0.196C0.489,-0.182 0.495,-0.165 0.495,-0.143C0.495,-0.123 0.486,-0.106 0.469,-0.095C0.452,-0.083 0.432,-0.077 0.411,-0.077C0.374,-0.077 0.345,-0.089 0.325,-0.114C0.304,-0.139 0.293,-0.168 0.293,-0.202C0.293,-0.249 0.312,-0.289 0.348,-0.32C0.386,-0.351 0.434,-0.37 0.493,-0.375C0.504,-0.376 0.519,-0.377 0.538,-0.378C0.557,-0.379 0.571,-0.38 0.582,-0.381C0.593,-0.382 0.606,-0.383 0.621,-0.385C0.635,-0.387 0.647,-0.39 0.656,-0.394C0.664,-0.397 0.672,-0.402 0.68,-0.408C0.696,-0.418 0.704,-0.436 0.704,-0.463C0.704,-0.49 0.696,-0.511 0.679,-0.527C0.662,-0.542 0.642,-0.55 0.619,-0.55C0.608,-0.55 0.598,-0.547 0.589,-0.542C0.579,-0.536 0.574,-0.53 0.574,-0.524C0.574,-0.518 0.577,-0.515 0.583,-0.515C0.586,-0.515 0.589,-0.518 0.594,-0.523C0.598,-0.528 0.606,-0.53 0.618,-0.53C0.63,-0.53 0.641,-0.525 0.65,-0.515C0.659,-0.505 0.663,-0.493 0.663,-0.478C0.663,-0.464 0.658,-0.452 0.647,-0.441C0.636,-0.43 0.622,-0.425 0.605,-0.425C0.588,-0.425 0.573,-0.432 0.561,-0.445C0.548,-0.458 0.542,-0.474 0.542,-0.494C0.542,-0.514 0.55,-0.531 0.566,-0.546C0.582,-0.561 0.602,-0.568 0.626,-0.568C0.651,-0.568 0.673,-0.558 0.693,-0.538C0.713,-0.517 0.723,-0.491 0.723,-0.459C0.723,-0.427 0.715,-0.4 0.7,-0.379C0.685,-0.358 0.666,-0.343 0.644,-0.334C0.599,-0.315 0.559,-0.306 0.522,-0.306L0.499,-0.306C0.544,-0.273 0.567,-0.229 0.567,-0.175C0.567,-0.122 0.546,-0.076 0.505,-0.038C0.464,0.001 0.406,0.02 0.332,0.02C0.257,0.02 0.2,-0 0.161,-0.041C0.122,-0.082 0.102,-0.126 0.102,-0.175C0.102,-0.224 0.114,-0.264 0.139,-0.297C0.164,-0.329 0.194,-0.353 0.229,-0.37L0.227,-0.38C0.166,-0.399 0.136,-0.442 0.136,-0.509C0.136,-0.556 0.154,-0.595 0.191,-0.625C0.227,-0.655 0.267,-0.67 0.311,-0.67C0.354,-0.67 0.391,-0.66 0.421,-0.639C0.451,-0.618 0.466,-0.588 0.466,-0.549C0.466,-0.529 0.46,-0.512 0.447,-0.499C0.434,-0.485 0.418,-0.478 0.401,-0.478C0.383,-0.478 0.369,-0.483 0.358,-0.494C0.346,-0.504 0.341,-0.517 0.341,-0.532C0.341,-0.547 0.345,-0.559 0.354,-0.57C0.363,-0.58 0.373,-0.585 0.386,-0.585C0.399,-0.585 0.409,-0.582 0.416,-0.577C0.423,-0.571 0.428,-0.565 0.429,-0.558C0.43,-0.551 0.433,-0.548 0.439,-0.548C0.444,-0.548 0.447,-0.551 0.447,-0.557C0.447,-0.58 0.436,-0.601 0.414,-0.62C0.393,-0.639 0.368,-0.648 0.341,-0.648C0.266,-0.648 0.228,-0.602 0.228,-0.51C0.228,-0.478 0.235,-0.451 0.25,-0.429C0.264,-0.406 0.285,-0.395 0.312,-0.395C0.327,-0.395 0.343,-0.399 0.362,-0.406L0.372,-0.409L0.377,-0.391C0.314,-0.371 0.27,-0.347 0.245,-0.321C0.22,-0.294 0.207,-0.251 0.207,-0.192C0.207,-0.133 0.224,-0.089 0.258,-0.061C0.292,-0.032 0.336,-0.018 0.39,-0.018C0.429,-0.018 0.466,-0.032 0.499,-0.059C0.532,-0.087 0.549,-0.122 0.549,-0.164Z" style="fill:rgb(217,156,34);fill-rule:nonzero;"/>
                    </g>
                </g>
                <g transform="matrix(1.4588,0,0,1.4588,-86.8574,-135.879)">
                    <g transform="matrix(43.0279,0,0,35.8566,129.881,278.416)">
                        <path d="M0.035,0.003L0.035,-0.022L0.055,-0.024C0.078,-0.027 0.096,-0.03 0.109,-0.035C0.121,-0.039 0.129,-0.048 0.134,-0.063C0.139,-0.077 0.141,-0.1 0.141,-0.133L0.141,-0.577C0.141,-0.61 0.139,-0.634 0.134,-0.648C0.129,-0.662 0.121,-0.671 0.109,-0.676C0.096,-0.68 0.078,-0.683 0.055,-0.686L0.035,-0.688L0.035,-0.713L0.183,-0.71L0.239,-0.71L0.477,-0.133L0.74,-0.71L0.8,-0.71L0.94,-0.713L0.94,-0.688L0.92,-0.686C0.897,-0.683 0.88,-0.68 0.867,-0.676C0.854,-0.671 0.846,-0.662 0.841,-0.648C0.836,-0.634 0.834,-0.61 0.834,-0.577L0.834,-0.133C0.834,-0.1 0.836,-0.077 0.841,-0.062C0.846,-0.047 0.854,-0.038 0.867,-0.034C0.88,-0.03 0.897,-0.027 0.92,-0.024L0.94,-0.022L0.94,0.003L0.792,-0L0.643,0.003L0.643,-0.022L0.663,-0.024C0.686,-0.027 0.704,-0.03 0.717,-0.034C0.729,-0.038 0.737,-0.047 0.742,-0.062C0.747,-0.077 0.749,-0.1 0.749,-0.133L0.749,-0.647L0.453,-0L0.434,-0L0.176,-0.637L0.176,-0.105C0.176,-0.084 0.179,-0.068 0.184,-0.057C0.189,-0.046 0.198,-0.039 0.211,-0.035C0.223,-0.03 0.24,-0.027 0.262,-0.024L0.282,-0.022L0.282,0.003L0.155,-0L0.035,0.003Z" style="fill:rgb(34,34,33);fill-rule:nonzero;"/>
                    </g>
                </g>
                <g transform="matrix(1.4588,0,0,1.4588,-86.8574,-135.879)">
                    <g transform="matrix(43.0279,0,0,35.8566,261.891,349.556)">
                        <path d="M0.607,0.011C0.57,0.011 0.543,-0.002 0.526,-0.027C0.508,-0.051 0.496,-0.082 0.491,-0.119C0.488,-0.146 0.483,-0.172 0.475,-0.199C0.469,-0.226 0.458,-0.25 0.443,-0.273C0.428,-0.295 0.406,-0.313 0.38,-0.326C0.353,-0.339 0.317,-0.346 0.274,-0.346L0.231,-0.346L0.231,-0.133C0.231,-0.1 0.233,-0.077 0.238,-0.063C0.243,-0.048 0.251,-0.039 0.264,-0.035C0.277,-0.03 0.294,-0.027 0.317,-0.024L0.337,-0.022L0.337,0.003L0.189,-0L0.188,-0L0.04,0.003L0.04,-0.022L0.06,-0.024C0.083,-0.027 0.101,-0.03 0.114,-0.035C0.126,-0.039 0.134,-0.048 0.139,-0.063C0.144,-0.077 0.146,-0.1 0.146,-0.133L0.146,-0.577C0.146,-0.61 0.144,-0.634 0.139,-0.648C0.134,-0.662 0.126,-0.671 0.114,-0.676C0.101,-0.68 0.083,-0.683 0.06,-0.686L0.04,-0.688L0.04,-0.713L0.188,-0.71L0.328,-0.71C0.373,-0.71 0.415,-0.705 0.454,-0.695C0.493,-0.684 0.524,-0.666 0.548,-0.641C0.571,-0.616 0.583,-0.58 0.583,-0.535C0.583,-0.495 0.574,-0.463 0.557,-0.438C0.539,-0.412 0.516,-0.394 0.487,-0.381C0.458,-0.368 0.426,-0.358 0.392,-0.353C0.441,-0.35 0.482,-0.333 0.513,-0.303C0.544,-0.272 0.563,-0.228 0.572,-0.169C0.578,-0.132 0.586,-0.102 0.595,-0.082C0.604,-0.061 0.614,-0.046 0.625,-0.038C0.635,-0.029 0.647,-0.025 0.658,-0.025C0.665,-0.025 0.673,-0.026 0.68,-0.029C0.687,-0.032 0.693,-0.034 0.698,-0.037L0.705,-0.012C0.694,-0.007 0.68,-0.002 0.662,0.003C0.644,0.008 0.626,0.011 0.607,0.011ZM0.33,-0.684L0.231,-0.684L0.231,-0.373L0.315,-0.373C0.379,-0.373 0.424,-0.386 0.45,-0.412C0.475,-0.438 0.488,-0.477 0.488,-0.529C0.488,-0.578 0.476,-0.617 0.453,-0.644C0.43,-0.671 0.389,-0.684 0.33,-0.684Z" style="fill:rgb(34,34,33);fill-rule:nonzero;"/>
                    </g>
                </g>
                <g transform="matrix(1.4588,0,0,1.4588,-86.8574,-135.201)">
                    <g transform="matrix(9.0634,0,0,9.0634,128.438,300.889)">
                        <path d="M0.166,-0L0.166,-0.66L0.209,-0.613L0.008,-0.613L0.008,-0.7L0.265,-0.7L0.265,-0L0.166,-0Z" style="fill:rgb(34,34,33);fill-rule:nonzero;"/>
                    </g>
                    <g transform="matrix(9.0634,0,0,9.0634,131.791,300.889)">
                        <path d="M0.038,-0.172L0.038,-0.242L0.396,-0.7L0.504,-0.7L0.149,-0.242L0.098,-0.258L0.657,-0.258L0.657,-0.172L0.038,-0.172ZM0.427,-0L0.427,-0.172L0.43,-0.258L0.43,-0.41L0.524,-0.41L0.524,-0L0.427,-0Z" style="fill:rgb(34,34,33);fill-rule:nonzero;"/>
                    </g>
                    <g transform="matrix(9.0634,0,0,9.0634,138.036,300.889)">
                        <path d="M0.114,0.006C0.095,0.006 0.079,-0.001 0.066,-0.014C0.053,-0.027 0.046,-0.043 0.046,-0.063C0.046,-0.083 0.053,-0.099 0.066,-0.112C0.079,-0.125 0.095,-0.131 0.114,-0.131C0.132,-0.131 0.148,-0.125 0.161,-0.112C0.173,-0.099 0.18,-0.083 0.18,-0.063C0.18,-0.043 0.173,-0.027 0.161,-0.014C0.148,-0.001 0.132,0.006 0.114,0.006Z" style="fill:rgb(34,34,33);fill-rule:nonzero;"/>
                    </g>
                    <g transform="matrix(9.0634,0,0,9.0634,142.939,300.889)">
                        <path d="M0.275,-0.708C0.338,-0.708 0.392,-0.694 0.436,-0.667C0.479,-0.64 0.512,-0.6 0.535,-0.549C0.558,-0.497 0.569,-0.434 0.569,-0.359C0.569,-0.28 0.555,-0.213 0.527,-0.158C0.499,-0.103 0.46,-0.062 0.411,-0.034C0.362,-0.006 0.304,0.008 0.238,0.008C0.205,0.008 0.174,0.005 0.143,-0.002C0.113,-0.009 0.087,-0.019 0.064,-0.033L0.102,-0.111C0.121,-0.099 0.141,-0.091 0.165,-0.086C0.188,-0.081 0.212,-0.078 0.237,-0.078C0.308,-0.078 0.364,-0.1 0.406,-0.145C0.448,-0.189 0.469,-0.255 0.469,-0.342C0.469,-0.356 0.468,-0.373 0.467,-0.392C0.466,-0.411 0.463,-0.43 0.458,-0.449L0.491,-0.415C0.482,-0.384 0.466,-0.359 0.445,-0.338C0.423,-0.317 0.397,-0.301 0.367,-0.291C0.336,-0.28 0.303,-0.275 0.267,-0.275C0.221,-0.275 0.18,-0.284 0.144,-0.301C0.108,-0.318 0.08,-0.343 0.059,-0.375C0.038,-0.406 0.028,-0.444 0.028,-0.487C0.028,-0.532 0.039,-0.572 0.061,-0.605C0.082,-0.637 0.112,-0.663 0.15,-0.681C0.187,-0.699 0.229,-0.708 0.275,-0.708ZM0.279,-0.627C0.249,-0.627 0.222,-0.621 0.199,-0.61C0.176,-0.599 0.158,-0.583 0.145,-0.563C0.132,-0.543 0.125,-0.519 0.125,-0.491C0.125,-0.45 0.139,-0.417 0.168,-0.393C0.197,-0.368 0.235,-0.356 0.284,-0.356C0.316,-0.356 0.344,-0.362 0.369,-0.374C0.393,-0.386 0.412,-0.402 0.426,-0.423C0.439,-0.444 0.446,-0.467 0.446,-0.492C0.446,-0.517 0.44,-0.539 0.427,-0.559C0.414,-0.579 0.396,-0.595 0.371,-0.608C0.346,-0.621 0.316,-0.627 0.279,-0.627Z" style="fill:rgb(34,34,33);fill-rule:nonzero;"/>
                    </g>
                    <g transform="matrix(9.0634,0,0,9.0634,148.422,300.889)">
                        <path d="M0.114,0.006C0.095,0.006 0.079,-0.001 0.066,-0.014C0.053,-0.027 0.046,-0.043 0.046,-0.063C0.046,-0.083 0.053,-0.099 0.066,-0.112C0.079,-0.125 0.095,-0.131 0.114,-0.131C0.132,-0.131 0.148,-0.125 0.161,-0.112C0.173,-0.099 0.18,-0.083 0.18,-0.063C0.18,-0.043 0.173,-0.027 0.161,-0.014C0.148,-0.001 0.132,0.006 0.114,0.006Z" style="fill:rgb(34,34,33);fill-rule:nonzero;"/>
                    </g>
                </g>
                <g transform="matrix(1.4588,0,0,1.4588,-86.8574,-135.201)">
                    <g transform="matrix(9.0634,0,0,9.0634,262.993,300.889)">
                        <path d="M0.037,-0L0.037,-0.068L0.322,-0.343C0.347,-0.367 0.366,-0.388 0.379,-0.406C0.391,-0.425 0.399,-0.442 0.404,-0.458C0.408,-0.473 0.41,-0.488 0.41,-0.503C0.41,-0.539 0.397,-0.567 0.372,-0.588C0.347,-0.609 0.31,-0.619 0.261,-0.619C0.224,-0.619 0.19,-0.613 0.16,-0.601C0.13,-0.588 0.104,-0.569 0.082,-0.543L0.014,-0.602C0.041,-0.636 0.077,-0.662 0.122,-0.681C0.167,-0.699 0.216,-0.708 0.27,-0.708C0.319,-0.708 0.361,-0.7 0.397,-0.685C0.433,-0.669 0.461,-0.646 0.481,-0.617C0.5,-0.588 0.51,-0.553 0.51,-0.513C0.51,-0.49 0.507,-0.468 0.501,-0.446C0.495,-0.424 0.484,-0.401 0.467,-0.376C0.45,-0.351 0.426,-0.324 0.395,-0.293L0.141,-0.048L0.117,-0.087L0.54,-0.087L0.54,-0L0.037,-0Z" style="fill:rgb(34,34,33);fill-rule:nonzero;"/>
                    </g>
                    <g transform="matrix(9.0634,0,0,9.0634,270.896,300.889)">
                        <path d="M0.334,0.008C0.279,0.008 0.231,-0.006 0.188,-0.034C0.145,-0.062 0.111,-0.103 0.086,-0.156C0.061,-0.209 0.048,-0.274 0.048,-0.35C0.048,-0.426 0.061,-0.491 0.086,-0.544C0.111,-0.597 0.145,-0.638 0.188,-0.666C0.231,-0.694 0.279,-0.708 0.334,-0.708C0.388,-0.708 0.437,-0.694 0.48,-0.666C0.523,-0.638 0.557,-0.597 0.582,-0.544C0.607,-0.491 0.619,-0.426 0.619,-0.35C0.619,-0.274 0.607,-0.209 0.582,-0.156C0.557,-0.103 0.523,-0.062 0.48,-0.034C0.437,-0.006 0.388,0.008 0.334,0.008ZM0.334,-0.081C0.371,-0.081 0.403,-0.091 0.431,-0.111C0.458,-0.131 0.48,-0.161 0.496,-0.201C0.511,-0.241 0.519,-0.291 0.519,-0.35C0.519,-0.409 0.511,-0.459 0.496,-0.499C0.48,-0.539 0.458,-0.569 0.431,-0.589C0.403,-0.609 0.371,-0.619 0.334,-0.619C0.297,-0.619 0.265,-0.609 0.237,-0.589C0.209,-0.569 0.187,-0.539 0.172,-0.499C0.156,-0.459 0.148,-0.409 0.148,-0.35C0.148,-0.291 0.156,-0.241 0.172,-0.201C0.187,-0.161 0.209,-0.131 0.237,-0.111C0.265,-0.091 0.297,-0.081 0.334,-0.081Z" style="fill:rgb(34,34,33);fill-rule:nonzero;"/>
                    </g>
                    <g transform="matrix(9.0634,0,0,9.0634,279.651,300.889)">
                        <path d="M0.037,-0L0.037,-0.068L0.322,-0.343C0.347,-0.367 0.366,-0.388 0.379,-0.406C0.391,-0.425 0.399,-0.442 0.404,-0.458C0.408,-0.473 0.41,-0.488 0.41,-0.503C0.41,-0.539 0.397,-0.567 0.372,-0.588C0.347,-0.609 0.31,-0.619 0.261,-0.619C0.224,-0.619 0.19,-0.613 0.16,-0.601C0.13,-0.588 0.104,-0.569 0.082,-0.543L0.014,-0.602C0.041,-0.636 0.077,-0.662 0.122,-0.681C0.167,-0.699 0.216,-0.708 0.27,-0.708C0.319,-0.708 0.361,-0.7 0.397,-0.685C0.433,-0.669 0.461,-0.646 0.481,-0.617C0.5,-0.588 0.51,-0.553 0.51,-0.513C0.51,-0.49 0.507,-0.468 0.501,-0.446C0.495,-0.424 0.484,-0.401 0.467,-0.376C0.45,-0.351 0.426,-0.324 0.395,-0.293L0.141,-0.048L0.117,-0.087L0.54,-0.087L0.54,-0L0.037,-0Z" style="fill:rgb(34,34,33);fill-rule:nonzero;"/>
                    </g>
                    <g transform="matrix(9.0634,0,0,9.0634,287.392,300.889)">
                        <path d="M0.038,-0.172L0.038,-0.242L0.396,-0.7L0.504,-0.7L0.149,-0.242L0.098,-0.258L0.657,-0.258L0.657,-0.172L0.038,-0.172ZM0.427,-0L0.427,-0.172L0.43,-0.258L0.43,-0.41L0.524,-0.41L0.524,-0L0.427,-0Z" style="fill:rgb(34,34,33);fill-rule:nonzero;"/>
                    </g>
                </g>
            </g>
        </g>
    </g>
</svg>
