<?xml version="1.0" encoding="UTF-8" standalone="no"?>
<!DOCTYPE svg PUBLIC "-//W3C//DTD SVG 1.1//EN" "http://www.w3.org/Graphics/SVG/1.1/DTD/svg11.dtd">
<svg width="100%" height="100%" viewBox="0 0 725 184" version="1.1" xmlns="http://www.w3.org/2000/svg" xmlns:xlink="http://www.w3.org/1999/xlink" xml:space="preserve" xmlns:serif="http://www.serif.com/" style="fill-rule:evenodd;clip-rule:evenodd;stroke-linejoin:round;stroke-miterlimit:2;">
    <g transform="matrix(1,0,0,1,-37675.8,-10753.8)">
        <g id="logo--8-.svg" serif:id="logo (8).svg" transform="matrix(4.16667,0,0,4.16667,38038.3,10845.4)">
            <g transform="matrix(1,0,0,1,-87,-22)">
                <clipPath id="_clip1">
                    <rect x="0" y="0" width="174" height="44"/>
                </clipPath>
                <g clip-path="url(#_clip1)">
                    <path d="M15.046,43.475C9.409,42.33 3.68,35.539 1.198,26.336C-1.292,17.134 0.235,8.385 4.527,4.555C8.346,0.253 17.088,-1.289 26.303,1.178C35.51,3.645 42.309,9.354 43.538,15.01C45.422,20.492 42.359,28.831 35.609,35.557C28.852,42.284 20.5,45.303 15.046,43.475ZM25.697,38.865C21.372,40.315 14.738,37.919 9.375,32.579C4.012,27.24 1.588,20.62 3.016,16.283C3.938,11.809 9.342,7.277 16.648,5.319C23.953,3.361 30.902,4.585 33.991,7.984C37.461,11.008 38.664,17.954 36.697,25.259C34.721,32.566 30.18,37.956 25.697,38.865Z" style="fill:rgb(49,103,227);"/>
                    <path d="M60.505,26.86C61.052,26.86 61.438,26.807 61.665,26.7C61.892,26.593 62.005,26.387 62.005,26.08C62.005,25.84 61.858,25.633 61.565,25.46C61.272,25.273 60.825,25.067 60.225,24.84C59.758,24.667 59.332,24.487 58.945,24.3C58.572,24.113 58.252,23.893 57.985,23.64C57.718,23.373 57.512,23.06 57.365,22.7C57.218,22.34 57.145,21.907 57.145,21.4C57.145,20.413 57.512,19.633 58.245,19.06C58.978,18.487 59.985,18.2 61.265,18.2C61.905,18.2 62.518,18.26 63.105,18.38C63.692,18.487 64.158,18.607 64.505,18.74L63.985,21.06C63.638,20.94 63.258,20.833 62.845,20.74C62.445,20.647 61.992,20.6 61.485,20.6C60.552,20.6 60.085,20.86 60.085,21.38C60.085,21.5 60.105,21.607 60.145,21.7C60.185,21.793 60.265,21.887 60.385,21.98C60.505,22.06 60.665,22.153 60.865,22.26C61.078,22.353 61.345,22.46 61.665,22.58C62.318,22.82 62.858,23.06 63.285,23.3C63.712,23.527 64.045,23.78 64.285,24.06C64.538,24.327 64.712,24.627 64.805,24.96C64.912,25.293 64.965,25.68 64.965,26.12C64.965,27.16 64.572,27.947 63.785,28.48C63.012,29.013 61.912,29.28 60.485,29.28C59.552,29.28 58.772,29.2 58.145,29.04C57.532,28.88 57.105,28.747 56.865,28.64L57.365,26.22C57.872,26.42 58.392,26.58 58.925,26.7C59.458,26.807 59.985,26.86 60.505,26.86ZM66.692,23.82C66.692,22.887 66.832,22.073 67.112,21.38C67.405,20.673 67.785,20.087 68.252,19.62C68.719,19.153 69.252,18.8 69.852,18.56C70.465,18.32 71.092,18.2 71.732,18.2C73.225,18.2 74.405,18.66 75.272,19.58C76.139,20.487 76.572,21.827 76.572,23.6C76.572,23.773 76.565,23.967 76.552,24.18C76.539,24.38 76.525,24.56 76.512,24.72L69.752,24.72C69.819,25.333 70.105,25.82 70.612,26.18C71.119,26.54 71.799,26.72 72.652,26.72C73.199,26.72 73.732,26.673 74.252,26.58C74.785,26.473 75.219,26.347 75.552,26.2L75.952,28.62C75.792,28.7 75.579,28.78 75.312,28.86C75.045,28.94 74.745,29.007 74.412,29.06C74.092,29.127 73.745,29.18 73.372,29.22C72.999,29.26 72.625,29.28 72.252,29.28C71.305,29.28 70.479,29.14 69.772,28.86C69.079,28.58 68.499,28.2 68.032,27.72C67.579,27.227 67.239,26.647 67.012,25.98C66.799,25.313 66.692,24.593 66.692,23.82ZM73.692,22.68C73.679,22.427 73.632,22.18 73.552,21.94C73.485,21.7 73.372,21.487 73.212,21.3C73.065,21.113 72.872,20.96 72.632,20.84C72.405,20.72 72.119,20.66 71.772,20.66C71.439,20.66 71.152,20.72 70.912,20.84C70.672,20.947 70.472,21.093 70.312,21.28C70.152,21.467 70.025,21.687 69.932,21.94C69.852,22.18 69.792,22.427 69.752,22.68L73.692,22.68ZM85.212,21.12C84.945,21.053 84.632,20.987 84.272,20.92C83.912,20.84 83.525,20.8 83.112,20.8C82.925,20.8 82.698,20.82 82.432,20.86C82.178,20.887 81.985,20.92 81.852,20.96L81.852,29L78.872,29L78.872,19.04C79.405,18.853 80.032,18.68 80.752,18.52C81.485,18.347 82.298,18.26 83.192,18.26C83.352,18.26 83.545,18.273 83.772,18.3C83.998,18.313 84.225,18.34 84.452,18.38C84.678,18.407 84.905,18.447 85.132,18.5C85.358,18.54 85.552,18.593 85.712,18.66L85.212,21.12ZM90.794,29C90.114,27.667 89.421,26.107 88.714,24.32C88.021,22.533 87.361,20.587 86.734,18.48L89.894,18.48C90.028,19 90.181,19.567 90.354,20.18C90.541,20.78 90.728,21.393 90.914,22.02C91.114,22.633 91.308,23.233 91.494,23.82C91.694,24.407 91.888,24.94 92.074,25.42C92.248,24.94 92.434,24.407 92.634,23.82C92.834,23.233 93.028,22.633 93.214,22.02C93.414,21.393 93.601,20.78 93.774,20.18C93.961,19.567 94.121,19 94.254,18.48L97.334,18.48C96.708,20.587 96.041,22.533 95.334,24.32C94.641,26.107 93.954,27.667 93.274,29L90.794,29ZM101.91,29L98.93,29L98.93,18.48L101.91,18.48L101.91,29ZM102.19,15.44C102.19,15.987 102.01,16.42 101.65,16.74C101.304,17.047 100.89,17.2 100.41,17.2C99.93,17.2 99.51,17.047 99.15,16.74C98.804,16.42 98.63,15.987 98.63,15.44C98.63,14.893 98.804,14.467 99.15,14.16C99.51,13.84 99.93,13.68 100.41,13.68C100.89,13.68 101.304,13.84 101.65,14.16C102.01,14.467 102.19,14.893 102.19,15.44ZM107.732,26.86C108.278,26.86 108.665,26.807 108.892,26.7C109.118,26.593 109.232,26.387 109.232,26.08C109.232,25.84 109.085,25.633 108.792,25.46C108.498,25.273 108.052,25.067 107.452,24.84C106.985,24.667 106.558,24.487 106.172,24.3C105.798,24.113 105.478,23.893 105.212,23.64C104.945,23.373 104.738,23.06 104.592,22.7C104.445,22.34 104.372,21.907 104.372,21.4C104.372,20.413 104.738,19.633 105.472,19.06C106.205,18.487 107.212,18.2 108.492,18.2C109.132,18.2 109.745,18.26 110.332,18.38C110.918,18.487 111.385,18.607 111.732,18.74L111.212,21.06C110.865,20.94 110.485,20.833 110.072,20.74C109.672,20.647 109.218,20.6 108.712,20.6C107.778,20.6 107.312,20.86 107.312,21.38C107.312,21.5 107.332,21.607 107.372,21.7C107.412,21.793 107.492,21.887 107.612,21.98C107.732,22.06 107.892,22.153 108.092,22.26C108.305,22.353 108.572,22.46 108.892,22.58C109.545,22.82 110.085,23.06 110.512,23.3C110.938,23.527 111.272,23.78 111.512,24.06C111.765,24.327 111.938,24.627 112.032,24.96C112.138,25.293 112.192,25.68 112.192,26.12C112.192,27.16 111.798,27.947 111.012,28.48C110.238,29.013 109.138,29.28 107.712,29.28C106.778,29.28 105.998,29.2 105.372,29.04C104.758,28.88 104.332,28.747 104.092,28.64L104.592,26.22C105.098,26.42 105.618,26.58 106.152,26.7C106.685,26.807 107.212,26.86 107.732,26.86Z" style="fill:rgb(38,38,38);fill-rule:nonzero;"/>
                    <path d="M121.339,20.8C121.112,20.613 120.785,20.433 120.359,20.26C119.932,20.087 119.465,20 118.959,20C118.425,20 117.965,20.1 117.579,20.3C117.205,20.487 116.899,20.753 116.659,21.1C116.419,21.433 116.245,21.833 116.139,22.3C116.032,22.767 115.979,23.267 115.979,23.8C115.979,25.013 116.279,25.953 116.879,26.62C117.479,27.273 118.279,27.6 119.279,27.6C119.785,27.6 120.205,27.58 120.539,27.54C120.885,27.487 121.152,27.433 121.339,27.38L121.339,20.8ZM121.339,13.8L123.199,13.48L123.199,28.7C122.772,28.82 122.225,28.94 121.559,29.06C120.892,29.18 120.125,29.24 119.259,29.24C118.459,29.24 117.739,29.113 117.099,28.86C116.459,28.607 115.912,28.247 115.459,27.78C115.005,27.313 114.652,26.747 114.399,26.08C114.159,25.4 114.039,24.64 114.039,23.8C114.039,23 114.139,22.267 114.339,21.6C114.552,20.933 114.859,20.36 115.259,19.88C115.659,19.4 116.145,19.027 116.719,18.76C117.305,18.493 117.972,18.36 118.719,18.36C119.319,18.36 119.845,18.44 120.299,18.6C120.765,18.76 121.112,18.913 121.339,19.06L121.339,13.8ZM125.816,23.82C125.816,22.9 125.949,22.1 126.216,21.42C126.483,20.727 126.836,20.153 127.276,19.7C127.716,19.247 128.223,18.907 128.796,18.68C129.369,18.453 129.956,18.34 130.556,18.34C131.956,18.34 133.029,18.78 133.776,19.66C134.523,20.527 134.896,21.853 134.896,23.64L134.896,23.96C134.896,24.08 134.889,24.193 134.876,24.3L127.756,24.3C127.836,25.38 128.149,26.2 128.696,26.76C129.243,27.32 130.096,27.6 131.256,27.6C131.909,27.6 132.456,27.547 132.896,27.44C133.349,27.32 133.689,27.207 133.916,27.1L134.176,28.66C133.949,28.78 133.549,28.907 132.976,29.04C132.416,29.173 131.776,29.24 131.056,29.24C130.149,29.24 129.363,29.107 128.696,28.84C128.043,28.56 127.503,28.18 127.076,27.7C126.649,27.22 126.329,26.653 126.116,26C125.916,25.333 125.816,24.607 125.816,23.82ZM132.956,22.8C132.969,21.96 132.756,21.273 132.316,20.74C131.889,20.193 131.296,19.92 130.536,19.92C130.109,19.92 129.729,20.007 129.396,20.18C129.076,20.34 128.803,20.553 128.576,20.82C128.349,21.087 128.169,21.393 128.036,21.74C127.916,22.087 127.836,22.44 127.796,22.8L132.956,22.8ZM139.988,27.66C140.748,27.66 141.308,27.56 141.668,27.36C142.041,27.16 142.228,26.84 142.228,26.4C142.228,25.947 142.048,25.587 141.688,25.32C141.328,25.053 140.734,24.753 139.908,24.42C139.508,24.26 139.121,24.1 138.748,23.94C138.388,23.767 138.074,23.567 137.808,23.34C137.541,23.113 137.328,22.84 137.168,22.52C137.008,22.2 136.928,21.807 136.928,21.34C136.928,20.42 137.268,19.693 137.948,19.16C138.628,18.613 139.554,18.34 140.728,18.34C141.021,18.34 141.314,18.36 141.608,18.4C141.901,18.427 142.174,18.467 142.428,18.52C142.681,18.56 142.901,18.607 143.088,18.66C143.288,18.713 143.441,18.76 143.548,18.8L143.208,20.4C143.008,20.293 142.694,20.187 142.268,20.08C141.841,19.96 141.328,19.9 140.728,19.9C140.208,19.9 139.754,20.007 139.368,20.22C138.981,20.42 138.788,20.74 138.788,21.18C138.788,21.407 138.828,21.607 138.908,21.78C139.001,21.953 139.134,22.113 139.308,22.26C139.494,22.393 139.721,22.52 139.988,22.64C140.254,22.76 140.574,22.887 140.948,23.02C141.441,23.207 141.881,23.393 142.268,23.58C142.654,23.753 142.981,23.96 143.248,24.2C143.528,24.44 143.741,24.733 143.888,25.08C144.034,25.413 144.108,25.827 144.108,26.32C144.108,27.28 143.748,28.007 143.028,28.5C142.321,28.993 141.308,29.24 139.988,29.24C139.068,29.24 138.348,29.16 137.828,29C137.308,28.853 136.954,28.74 136.768,28.66L137.108,27.06C137.321,27.14 137.661,27.26 138.128,27.42C138.594,27.58 139.214,27.66 139.988,27.66ZM148.354,29L146.494,29L146.494,18.6L148.354,18.6L148.354,29ZM147.414,16.72C147.08,16.72 146.794,16.613 146.554,16.4C146.327,16.173 146.214,15.873 146.214,15.5C146.214,15.127 146.327,14.833 146.554,14.62C146.794,14.393 147.08,14.28 147.414,14.28C147.747,14.28 148.027,14.393 148.254,14.62C148.494,14.833 148.614,15.127 148.614,15.5C148.614,15.873 148.494,16.173 148.254,16.4C148.027,16.613 147.747,16.72 147.414,16.72ZM158.072,27.96C157.912,28.067 157.599,28.207 157.132,28.38C156.679,28.54 156.145,28.62 155.532,28.62C154.905,28.62 154.312,28.52 153.752,28.32C153.205,28.12 152.725,27.813 152.312,27.4C151.899,26.973 151.572,26.447 151.332,25.82C151.092,25.193 150.972,24.447 150.972,23.58C150.972,22.82 151.085,22.127 151.312,21.5C151.539,20.86 151.865,20.313 152.292,19.86C152.732,19.393 153.265,19.033 153.892,18.78C154.519,18.513 155.225,18.38 156.012,18.38C156.879,18.38 157.632,18.447 158.272,18.58C158.925,18.7 159.472,18.813 159.912,18.92L159.912,28.2C159.912,29.8 159.499,30.96 158.672,31.68C157.845,32.4 156.592,32.76 154.912,32.76C154.259,32.76 153.639,32.707 153.052,32.6C152.479,32.493 151.979,32.367 151.552,32.22L151.892,30.6C152.265,30.747 152.719,30.873 153.252,30.98C153.799,31.1 154.365,31.16 154.952,31.16C156.059,31.16 156.852,30.94 157.332,30.5C157.825,30.06 158.072,29.36 158.072,28.4L158.072,27.96ZM158.052,20.24C157.865,20.187 157.612,20.14 157.292,20.1C156.985,20.047 156.565,20.02 156.032,20.02C155.032,20.02 154.259,20.347 153.712,21C153.179,21.653 152.912,22.52 152.912,23.6C152.912,24.2 152.985,24.713 153.132,25.14C153.292,25.567 153.499,25.92 153.752,26.2C154.019,26.48 154.319,26.687 154.652,26.82C154.999,26.953 155.352,27.02 155.712,27.02C156.205,27.02 156.659,26.953 157.072,26.82C157.485,26.673 157.812,26.507 158.052,26.32L158.052,20.24ZM163.115,18.9C163.541,18.793 164.108,18.68 164.815,18.56C165.521,18.44 166.335,18.38 167.255,18.38C168.081,18.38 168.768,18.5 169.315,18.74C169.861,18.967 170.295,19.293 170.615,19.72C170.948,20.133 171.181,20.633 171.315,21.22C171.448,21.807 171.515,22.453 171.515,23.16L171.515,29L169.655,29L169.655,23.56C169.655,22.92 169.608,22.373 169.515,21.92C169.435,21.467 169.295,21.1 169.095,20.82C168.895,20.54 168.628,20.34 168.295,20.22C167.961,20.087 167.548,20.02 167.055,20.02C166.855,20.02 166.648,20.027 166.435,20.04C166.221,20.053 166.015,20.073 165.815,20.1C165.628,20.113 165.455,20.133 165.295,20.16C165.148,20.187 165.041,20.207 164.975,20.22L164.975,29L163.115,29L163.115,18.9Z" style="fill:rgb(38,38,38);fill-rule:nonzero;"/>
                </g>
            </g>
        </g>
    </g>
</svg>
