<?xml version="1.0" encoding="UTF-8" standalone="no"?>
<!DOCTYPE svg PUBLIC "-//W3C//DTD SVG 1.1//EN" "http://www.w3.org/Graphics/SVG/1.1/DTD/svg11.dtd">
<svg width="100%" height="100%" viewBox="0 0 1134 1134" version="1.1" xmlns="http://www.w3.org/2000/svg" xmlns:xlink="http://www.w3.org/1999/xlink" xml:space="preserve" xmlns:serif="http://www.serif.com/" style="fill-rule:evenodd;clip-rule:evenodd;stroke-linejoin:round;stroke-miterlimit:2;">
    <g transform="matrix(1,0,0,1,-38467,-11534)">
        <g id="Artboard2" transform="matrix(2.1434,0,0,2.1434,-43983.1,-13188)">
            <rect x="38467" y="11534" width="529" height="529" style="fill:none;"/>
            <clipPath id="_clip1">
                <rect x="38467" y="11534" width="529" height="529"/>
            </clipPath>
            <g clip-path="url(#_clip1)">
                <g transform="matrix(0.865252,0,0,0.865252,6661.94,1996.02)">
                    <g transform="matrix(4.92245,0,0,4.92245,36111.4,9893.22)">
                        <g transform="matrix(43.0279,0,0,35.8566,129.881,278.416)">
                            <path d="M0.035,0.003L0.035,-0.022L0.055,-0.024C0.078,-0.027 0.096,-0.03 0.109,-0.035C0.121,-0.039 0.129,-0.048 0.134,-0.063C0.139,-0.077 0.141,-0.1 0.141,-0.133L0.141,-0.577C0.141,-0.61 0.139,-0.634 0.134,-0.648C0.129,-0.662 0.121,-0.671 0.109,-0.676C0.096,-0.68 0.078,-0.683 0.055,-0.686L0.035,-0.688L0.035,-0.713L0.183,-0.71L0.239,-0.71L0.477,-0.133L0.74,-0.71L0.8,-0.71L0.94,-0.713L0.94,-0.688L0.92,-0.686C0.897,-0.683 0.88,-0.68 0.867,-0.676C0.854,-0.671 0.846,-0.662 0.841,-0.648C0.836,-0.634 0.834,-0.61 0.834,-0.577L0.834,-0.133C0.834,-0.1 0.836,-0.077 0.841,-0.062C0.846,-0.047 0.854,-0.038 0.867,-0.034C0.88,-0.03 0.897,-0.027 0.92,-0.024L0.94,-0.022L0.94,0.003L0.792,-0L0.643,0.003L0.643,-0.022L0.663,-0.024C0.686,-0.027 0.704,-0.03 0.717,-0.034C0.729,-0.038 0.737,-0.047 0.742,-0.062C0.747,-0.077 0.749,-0.1 0.749,-0.133L0.749,-0.647L0.453,-0L0.434,-0L0.176,-0.637L0.176,-0.105C0.176,-0.084 0.179,-0.068 0.184,-0.057C0.189,-0.046 0.198,-0.039 0.211,-0.035C0.223,-0.03 0.24,-0.027 0.262,-0.024L0.282,-0.022L0.282,0.003L0.155,-0L0.035,0.003Z" style="fill:rgb(34,34,33);fill-rule:nonzero;"/>
                        </g>
                    </g>
                    <g transform="matrix(4.62391,0,0,4.62391,36105.2,9969.6)">
                        <g transform="matrix(115.227,0,0,115.228,170.917,333.047)">
                            <path d="M0.549,-0.164C0.549,-0.206 0.537,-0.24 0.513,-0.266C0.489,-0.292 0.46,-0.305 0.426,-0.305C0.392,-0.305 0.366,-0.295 0.347,-0.274C0.328,-0.253 0.319,-0.228 0.319,-0.2C0.319,-0.171 0.327,-0.147 0.344,-0.126C0.361,-0.105 0.383,-0.095 0.411,-0.095C0.426,-0.095 0.438,-0.098 0.449,-0.105C0.453,-0.108 0.455,-0.111 0.455,-0.114C0.455,-0.12 0.452,-0.123 0.446,-0.123C0.445,-0.123 0.442,-0.122 0.437,-0.119C0.432,-0.116 0.425,-0.115 0.416,-0.115C0.407,-0.115 0.398,-0.12 0.39,-0.129C0.382,-0.138 0.378,-0.15 0.378,-0.164C0.378,-0.178 0.383,-0.19 0.393,-0.201C0.402,-0.211 0.416,-0.216 0.433,-0.216C0.45,-0.216 0.465,-0.209 0.477,-0.196C0.489,-0.182 0.495,-0.165 0.495,-0.143C0.495,-0.123 0.486,-0.106 0.469,-0.095C0.452,-0.083 0.432,-0.077 0.411,-0.077C0.374,-0.077 0.345,-0.089 0.325,-0.114C0.304,-0.139 0.293,-0.168 0.293,-0.202C0.293,-0.249 0.312,-0.289 0.348,-0.32C0.386,-0.351 0.434,-0.37 0.493,-0.375C0.504,-0.376 0.519,-0.377 0.538,-0.378C0.557,-0.379 0.571,-0.38 0.582,-0.381C0.593,-0.382 0.606,-0.383 0.621,-0.385C0.635,-0.387 0.647,-0.39 0.656,-0.394C0.664,-0.397 0.672,-0.402 0.68,-0.408C0.696,-0.418 0.704,-0.436 0.704,-0.463C0.704,-0.49 0.696,-0.511 0.679,-0.527C0.662,-0.542 0.642,-0.55 0.619,-0.55C0.608,-0.55 0.598,-0.547 0.589,-0.542C0.579,-0.536 0.574,-0.53 0.574,-0.524C0.574,-0.518 0.577,-0.515 0.583,-0.515C0.586,-0.515 0.589,-0.518 0.594,-0.523C0.598,-0.528 0.606,-0.53 0.618,-0.53C0.63,-0.53 0.641,-0.525 0.65,-0.515C0.659,-0.505 0.663,-0.493 0.663,-0.478C0.663,-0.464 0.658,-0.452 0.647,-0.441C0.636,-0.43 0.622,-0.425 0.605,-0.425C0.588,-0.425 0.573,-0.432 0.561,-0.445C0.548,-0.458 0.542,-0.474 0.542,-0.494C0.542,-0.514 0.55,-0.531 0.566,-0.546C0.582,-0.561 0.602,-0.568 0.626,-0.568C0.651,-0.568 0.673,-0.558 0.693,-0.538C0.713,-0.517 0.723,-0.491 0.723,-0.459C0.723,-0.427 0.715,-0.4 0.7,-0.379C0.685,-0.358 0.666,-0.343 0.644,-0.334C0.599,-0.315 0.559,-0.306 0.522,-0.306L0.499,-0.306C0.544,-0.273 0.567,-0.229 0.567,-0.175C0.567,-0.122 0.546,-0.076 0.505,-0.038C0.464,0.001 0.406,0.02 0.332,0.02C0.257,0.02 0.2,-0 0.161,-0.041C0.122,-0.082 0.102,-0.126 0.102,-0.175C0.102,-0.224 0.114,-0.264 0.139,-0.297C0.164,-0.329 0.194,-0.353 0.229,-0.37L0.227,-0.38C0.166,-0.399 0.136,-0.442 0.136,-0.509C0.136,-0.556 0.154,-0.595 0.191,-0.625C0.227,-0.655 0.267,-0.67 0.311,-0.67C0.354,-0.67 0.391,-0.66 0.421,-0.639C0.451,-0.618 0.466,-0.588 0.466,-0.549C0.466,-0.529 0.46,-0.512 0.447,-0.499C0.434,-0.485 0.418,-0.478 0.401,-0.478C0.383,-0.478 0.369,-0.483 0.358,-0.494C0.346,-0.504 0.341,-0.517 0.341,-0.532C0.341,-0.547 0.345,-0.559 0.354,-0.57C0.363,-0.58 0.373,-0.585 0.386,-0.585C0.399,-0.585 0.409,-0.582 0.416,-0.577C0.423,-0.571 0.428,-0.565 0.429,-0.558C0.43,-0.551 0.433,-0.548 0.439,-0.548C0.444,-0.548 0.447,-0.551 0.447,-0.557C0.447,-0.58 0.436,-0.601 0.414,-0.62C0.393,-0.639 0.368,-0.648 0.341,-0.648C0.266,-0.648 0.228,-0.602 0.228,-0.51C0.228,-0.478 0.235,-0.451 0.25,-0.429C0.264,-0.406 0.285,-0.395 0.312,-0.395C0.327,-0.395 0.343,-0.399 0.362,-0.406L0.372,-0.409L0.377,-0.391C0.314,-0.371 0.27,-0.347 0.245,-0.321C0.22,-0.294 0.207,-0.251 0.207,-0.192C0.207,-0.133 0.224,-0.089 0.258,-0.061C0.292,-0.032 0.336,-0.018 0.39,-0.018C0.429,-0.018 0.466,-0.032 0.499,-0.059C0.532,-0.087 0.549,-0.122 0.549,-0.164Z" style="fill:rgb(217,156,34);fill-rule:nonzero;"/>
                        </g>
                    </g>
                    <g transform="matrix(4.92245,0,0,4.92245,36580.9,10123.2)">
                        <g transform="matrix(43.0279,0,0,35.8566,129.881,278.416)">
                            <path d="M0.607,0.011C0.57,0.011 0.543,-0.002 0.526,-0.027C0.508,-0.051 0.496,-0.082 0.491,-0.119C0.488,-0.146 0.483,-0.172 0.475,-0.199C0.469,-0.226 0.458,-0.25 0.443,-0.273C0.428,-0.295 0.406,-0.313 0.38,-0.326C0.353,-0.339 0.317,-0.346 0.274,-0.346L0.231,-0.346L0.231,-0.133C0.231,-0.1 0.233,-0.077 0.238,-0.063C0.243,-0.048 0.251,-0.039 0.264,-0.035C0.277,-0.03 0.294,-0.027 0.317,-0.024L0.337,-0.022L0.337,0.003L0.189,-0L0.188,-0L0.04,0.003L0.04,-0.022L0.06,-0.024C0.083,-0.027 0.101,-0.03 0.114,-0.035C0.126,-0.039 0.134,-0.048 0.139,-0.063C0.144,-0.077 0.146,-0.1 0.146,-0.133L0.146,-0.577C0.146,-0.61 0.144,-0.634 0.139,-0.648C0.134,-0.662 0.126,-0.671 0.114,-0.676C0.101,-0.68 0.083,-0.683 0.06,-0.686L0.04,-0.688L0.04,-0.713L0.188,-0.71L0.328,-0.71C0.373,-0.71 0.415,-0.705 0.454,-0.695C0.493,-0.684 0.524,-0.666 0.548,-0.641C0.571,-0.616 0.583,-0.58 0.583,-0.535C0.583,-0.495 0.574,-0.463 0.557,-0.438C0.539,-0.412 0.516,-0.394 0.487,-0.381C0.458,-0.368 0.426,-0.358 0.392,-0.353C0.441,-0.35 0.482,-0.333 0.513,-0.303C0.544,-0.272 0.563,-0.228 0.572,-0.169C0.578,-0.132 0.586,-0.102 0.595,-0.082C0.604,-0.061 0.614,-0.046 0.625,-0.038C0.635,-0.029 0.647,-0.025 0.658,-0.025C0.665,-0.025 0.673,-0.026 0.68,-0.029C0.687,-0.032 0.693,-0.034 0.698,-0.037L0.705,-0.012C0.694,-0.007 0.68,-0.002 0.662,0.003C0.644,0.008 0.626,0.011 0.607,0.011ZM0.33,-0.684L0.231,-0.684L0.231,-0.373L0.315,-0.373C0.379,-0.373 0.424,-0.386 0.45,-0.412C0.475,-0.438 0.488,-0.477 0.488,-0.529C0.488,-0.578 0.476,-0.617 0.453,-0.644C0.43,-0.671 0.389,-0.684 0.33,-0.684Z" style="fill:rgb(34,34,33);fill-rule:nonzero;"/>
                        </g>
                    </g>
                </g>
            </g>
        </g>
    </g>
</svg>
